<svg xmlns="http://www.w3.org/2000/svg">
    <symbol id="fb" width="30" height="31"  viewBox="0 0 30 31">
        <g>
            <path d="M11.3216 30.4082V16.3313H7.5V11.263H11.3216V6.93395C11.3216 3.53217 13.579 0.408203 18.7806 0.408203C20.8866 0.408203 22.4439 0.604853 22.4439 0.604853L22.3212 5.33784C22.3212 5.33784 20.733 5.32277 18.9999 5.32277C17.1241 5.32277 16.8236 6.16472 16.8236 7.56215V11.263H22.4703L22.2246 16.3313H16.8236V30.4082H11.3216Z" fill="#171717"/>
        </g>
    </symbol>

    <symbol id="in" width="40" height="41" viewBox="0 0 40 41">
        <g>
            <path d="M7.91149 11.8318C9.82958 11.8318 11.3845 10.2768 11.3845 8.35875C11.3845 6.44066 9.82958 4.88574 7.91149 4.88574C5.9934 4.88574 4.43848 6.44066 4.43848 8.35875C4.43848 10.2768 5.9934 11.8318 7.91149 11.8318Z" fill="#171717"/>
            <path fill-rule="evenodd" clip-rule="evenodd" d="M14.6632 33.7318V14.4635H20.4061V17.0984H20.4871C21.2855 15.5857 23.2379 13.9873 26.1505 13.9873C32.2171 13.9873 33.3347 17.9762 33.3347 23.1666V33.7333H27.349V24.3619C27.349 22.1285 27.3109 19.254 24.2362 19.254C21.1189 19.254 20.6457 21.6889 20.6457 24.2032V33.7318H14.6632ZM10.9061 14.4635H4.91406V33.7318H10.9061V14.4635Z" fill="#171717"/>
        </g>
    </symbol>

    <symbol id="ins" width="40" height="41" viewBox="0 0 40 41">
        <g>
            <path fill-rule="evenodd" clip-rule="evenodd" d="M19.9998 12.7109C15.7484 12.7109 12.3027 16.1566 12.3027 20.408C12.3027 24.6595 15.7484 28.1052 19.9998 28.1052C24.2513 28.1052 27.697 24.6595 27.697 20.408C27.697 16.1566 24.2513 12.7109 19.9998 12.7109ZM19.9998 25.4139C17.2398 25.4139 14.9942 23.168 14.9942 20.408C14.9942 17.648 17.2398 15.4024 19.9998 15.4024C22.7598 15.4024 25.0057 17.648 25.0057 20.408C25.0057 23.168 22.7598 25.4139 19.9998 25.4139Z" fill="#171717"/>
            <path d="M29.8061 12.4025C29.8061 13.3967 29.0002 14.2025 28.0061 14.2025C27.0121 14.2025 26.2061 13.3967 26.2061 12.4025C26.2061 11.4084 27.0121 10.6025 28.0061 10.6025C29.0002 10.6025 29.8061 11.4084 29.8061 12.4025Z" fill="#171717"/>
            <path fill-rule="evenodd" clip-rule="evenodd" d="M20 5.4082C15.92 5.4082 15.4229 5.42535 13.8114 5.49392C12.2172 5.57964 11.12 5.81964 10.1771 6.19677C9.18285 6.57392 8.36 7.0882 7.52 7.9282C6.68 8.7682 6.16572 9.59105 5.78857 10.5854C5.41143 11.5282 5.17143 12.6254 5.08572 14.2196C5.01715 15.8311 5 16.3282 5 20.4082C5 24.4882 5.01715 24.9854 5.08572 26.5967C5.15428 28.191 5.41143 29.2882 5.78857 30.231C6.16572 31.2254 6.68 32.0482 7.52 32.8882C8.36 33.7282 9.18285 34.2425 10.1771 34.6197C11.1371 34.9967 12.2172 35.2367 13.8114 35.3225C15.4057 35.391 15.92 35.4082 20 35.4082C24.08 35.4082 24.5772 35.391 26.1885 35.3225C27.7828 35.2539 28.88 34.9967 29.8228 34.6197C30.8172 34.2425 31.64 33.7282 32.48 32.8882C33.32 32.0482 33.8343 31.2254 34.2115 30.231C34.5885 29.271 34.8285 28.191 34.9143 26.5967C34.9828 25.0025 35 24.4882 35 20.4082C35 16.3282 34.9828 15.8311 34.9143 14.2196C34.8457 12.6254 34.5885 11.5282 34.2115 10.5854C33.8343 9.59105 33.32 8.7682 32.48 7.9282C31.64 7.0882 30.8172 6.57392 29.8228 6.19677C28.8628 5.81964 27.7828 5.57964 26.1885 5.49392C24.5772 5.42535 24.08 5.4082 20 5.4082ZM20 8.11677C24.0115 8.11677 24.4743 8.13392 26.0685 8.20249C27.5257 8.27105 28.3315 8.51105 28.8457 8.71677C29.5485 8.99105 30.0457 9.31677 30.5772 9.83105C31.1085 10.3625 31.4343 10.8596 31.6915 11.5625C31.8972 12.0939 32.1372 12.8825 32.2057 14.3396C32.2743 15.9168 32.2915 16.3968 32.2915 20.4082C32.2915 24.4197 32.2743 24.8825 32.2057 26.4767C32.1372 27.9339 31.8972 28.7397 31.6915 29.2539C31.4172 29.9567 31.0915 30.4539 30.5772 30.9854C30.0457 31.5167 29.5485 31.8425 28.8457 32.0997C28.3143 32.3054 27.5257 32.5454 26.0685 32.6139C24.4915 32.6825 24.0115 32.6997 20 32.6997C15.9886 32.6997 15.5257 32.6825 13.9314 32.6139C12.4743 32.5454 11.6686 32.3054 11.1543 32.0997C10.4514 31.8254 9.95428 31.4997 9.42285 30.9854C8.89143 30.4539 8.56572 29.9567 8.30857 29.2539C8.10285 28.7225 7.86285 27.9339 7.79428 26.4767C7.72572 24.8997 7.70857 24.4197 7.70857 20.4082C7.70857 16.3968 7.72572 15.9339 7.79428 14.3396C7.86285 12.8825 8.10285 12.0768 8.30857 11.5625C8.58285 10.8596 8.90857 10.3625 9.42285 9.83105C9.95428 9.29964 10.4514 8.97392 11.1543 8.71677C11.6857 8.51105 12.4743 8.27105 13.9314 8.20249C15.5257 8.13392 15.9886 8.11677 20 8.11677Z" fill="#171717"/>
        </g>
    </symbol>

    <symbol id="up" width="40" height="41"  viewBox="0 0 40 41">
        <g>
            <path d="M30.9294 9.80477C26.6419 9.82539 23.3831 12.661 22.1631 17.1798C20.1162 14.0298 18.5194 10.4266 17.6038 7.38477L13.0912 7.40602L13.1537 19.3673C13.1564 19.9304 13.0481 20.4885 12.8351 21.0098C12.6221 21.5311 12.3085 22.0053 11.9122 22.4054C11.5158 22.8055 11.0446 23.1236 10.5254 23.3415C10.0061 23.5595 9.44906 23.673 8.88594 23.6757C7.74866 23.6811 6.65581 23.2345 5.84783 22.4341C5.44775 22.0378 5.12965 21.5666 4.91169 21.0473C4.69372 20.5281 4.58017 19.971 4.5775 19.4079L4.515 7.44664L0 7.46852L0.0625 19.4304C0.08 24.3941 4.04625 28.3273 8.9 28.3023C13.7537 28.2773 17.6844 24.311 17.6625 19.346L17.6531 17.3148C18.5631 19.1148 19.7006 21.0273 20.9506 22.7148L18.1912 35.9298L22.8162 35.9085L24.8038 26.3073C26.6138 27.4279 28.6475 28.0948 31.0163 28.0835C35.9813 28.0616 40.025 23.9816 40 18.7898C39.9775 13.8235 35.895 9.78164 30.93 9.80414L30.9294 9.80477ZM30.9937 23.4585C29.1887 23.4666 27.38 22.686 25.9075 21.4504L26.35 19.6379V19.5241C26.68 17.6029 27.6787 14.3266 31.0637 14.3116C32.2599 14.3095 33.4083 14.7807 34.2581 15.6225C35.1079 16.4642 35.5901 17.608 35.5994 18.8041C35.4975 21.3998 33.3638 23.4416 30.9931 23.4523L30.9937 23.4585Z" fill="#171717"/>
        </g>
    </symbol>

    <symbol id="arrow"   viewBox="0 0 27 28">
        <g>
            <path fill-rule="evenodd" clip-rule="evenodd" d="M17.6274 7.2082H3.97298V3.6082H23.773V23.4082H20.173V9.75379L5.24578 24.681L2.7002 22.1354L17.6274 7.2082Z" fill=""/>
        </g>
    </symbol>

    <symbol id="clip" width="15" height="20"  viewBox="0 0 15 20">
        <g>
            <path d="M3.90685 18.8817C6.66628 20.1097 9.9129 18.8627 11.1387 16.1041L14.5426 8.46274C14.5648 8.41295 14.5651 8.35695 14.5456 8.30616C14.5261 8.25536 14.4884 8.214 14.4386 8.19184L13.3576 7.71083C13.3083 7.689 13.2523 7.68761 13.2019 7.70696C13.1516 7.7263 13.1109 7.76482 13.0888 7.81407L9.68496 15.4554C9.26261 16.4045 8.49512 17.1316 7.52579 17.5039C6.55647 17.8762 5.49958 17.8498 4.5526 17.4267C3.60349 17.0043 2.87641 16.2368 2.50492 15.2696C2.13261 14.3003 2.15979 13.2455 2.58214 12.2964L6.05039 4.5065L6.61222 3.24396C7.13755 2.06344 8.52382 1.53099 9.70434 2.05632C10.2756 2.31051 10.7126 2.77169 10.9369 3.35583C11.1613 3.93997 11.1454 4.5751 10.8912 5.14632L7.45029 12.8747C7.36214 13.0689 7.20597 13.2187 7.00702 13.2951L7.00491 13.2959C6.80596 13.3723 6.59176 13.3648 6.39842 13.2787C6.20215 13.1914 6.05443 13.0344 5.97801 12.8355C5.90242 12.6386 5.90919 12.4223 5.99522 12.229L8.8086 5.91463C8.83076 5.86483 8.83111 5.80884 8.8116 5.75804C8.79209 5.70725 8.75435 5.66589 8.70455 5.64373L7.62363 5.16272C7.57428 5.14089 7.51829 5.1395 7.46792 5.15884C7.41754 5.17819 7.37688 5.2167 7.35484 5.26596L4.54439 11.5816C4.28499 12.1645 4.2689 12.8119 4.49732 13.4066C4.72574 14.0013 5.17397 14.4728 5.75398 14.7309C6.95793 15.2666 8.3709 14.7215 8.90747 13.5197L9.24037 12.7676L12.3462 5.79207C12.5577 5.32049 12.6735 4.81162 12.6869 4.29495C12.7002 3.77829 12.6109 3.26411 12.424 2.78225C12.0476 1.80234 11.3109 1.02882 10.353 0.602559C9.36078 0.162773 8.28371 0.166019 7.34401 0.526943C6.40431 0.887868 5.60199 1.60647 5.16139 2.59659L1.12919 11.6499C0.536893 12.9848 0.496976 14.4743 1.02129 15.8394C1.5443 17.2075 2.57107 18.2873 3.90685 18.8817Z" fill="#F8F8F8"/>
        </g>
    </symbol>

    <symbol id="moon" width="50" height="51"  viewBox="0 0 50 51">
        <g>
            <path fill-rule="evenodd" clip-rule="evenodd" d="M21.484 13.53C19.0905 14.3271 17.2369 15.6196 15.5326 17.6796C12.3869 21.482 12.1425 27.5754 14.9626 31.8878C20.6739 40.6209 33.941 38.6074 36.8757 28.5621C37.2931 27.1332 36.6154 26.5848 35.494 27.4438C29.4679 32.0594 20.879 27.8791 20.8728 20.3274C20.8711 18.1991 21.3965 16.6423 22.7798 14.6777C23.4168 13.773 22.6892 13.1286 21.484 13.53Z" fill=""/>
        </g>
    </symbol>

    <symbol id="pen" width="17" height="16"  viewBox="0 0 17 16">
        <g>
            <path d="M1.65513 10.9023L0.690164 14.7349C0.656876 14.875 0.658017 15.0202 0.693503 15.1598C0.72899 15.2995 0.797926 15.43 0.895276 15.542C0.992625 15.654 1.11593 15.7446 1.25618 15.8071C1.39643 15.8696 1.55008 15.9025 1.70591 15.9034C1.77852 15.9101 1.85169 15.9101 1.9243 15.9034L6.11427 15.0153L14.159 7.63994L9.66939 3.51758L1.65513 10.9023Z" fill=""/>
            <path d="M16.6887 3.94744L13.6923 1.18985C13.4953 1.00946 13.2287 0.908203 12.9508 0.908203C12.6729 0.908203 12.4063 1.00946 12.2093 1.18985L10.5435 2.72288L15.028 6.84992L16.6938 5.31688C16.7913 5.22671 16.8685 5.11974 16.921 5.00208C16.9735 4.88442 17.0003 4.75839 16.9999 4.63119C16.9994 4.50399 16.9717 4.37813 16.9183 4.2608C16.8649 4.14348 16.7869 4.03699 16.6887 3.94744Z" fill=""/>
        </g>
    </symbol>

    <symbol id="sun" width="50" height="51px" viewBox="0 0 50 51">
        <g>
            <path fill-rule="evenodd" clip-rule="evenodd" d="M24.5191 11.5333C23.1973 11.9999 23.2084 15.8201 24.533 16.2702C25.8099 16.7041 26.3689 15.9828 26.3689 13.9016C26.3689 11.8307 25.7871 11.0858 24.5191 11.5333ZM15.5466 15.2407C14.8463 15.4881 14.4912 16.4189 14.8349 17.1066C15.6666 18.7712 17.7339 19.8268 18.5561 19.0069C19.7184 17.8477 17.1755 14.6653 15.5466 15.2407ZM33.3473 15.2957C32.9106 15.5128 31.2398 17.2298 31.1184 17.5864C30.7414 18.6932 31.7564 19.7056 32.8663 19.3296C33.2238 19.2085 34.9455 17.5422 35.1631 17.1066C35.7367 15.9587 34.4984 14.7237 33.3473 15.2957ZM24.177 18.4704C22.4713 18.7825 21.4719 19.2284 20.3961 20.1572C13.878 25.7847 21.7089 36.0259 28.883 31.2562C34.8932 27.2602 31.1861 17.1882 24.177 18.4704ZM11.8611 24.1571C10.7016 24.5665 10.717 26.3146 11.8837 26.7111C12.2656 26.8409 14.6147 26.8386 14.9988 26.7081C16.1742 26.3087 16.1742 24.5561 14.9988 24.1567C14.6281 24.0307 12.2184 24.0311 11.8611 24.1571ZM35.0044 24.1522C33.7965 24.5935 33.8094 26.2883 35.0237 26.7156C35.3746 26.8391 37.7479 26.8356 38.1143 26.7111C39.2952 26.3098 39.2952 24.555 38.1143 24.1537C37.76 24.0333 35.3328 24.0321 35.0044 24.1522ZM17.1083 31.5391C16.7718 31.6574 15.0398 33.3481 14.8349 33.7582C14.2613 34.9061 15.4996 36.1411 16.6507 35.5691C17.0874 35.352 18.7582 33.635 18.8796 33.2784C19.2588 32.1653 18.2221 31.1474 17.1083 31.5391ZM31.9167 31.5347C31.2418 31.773 30.877 32.5698 31.1184 33.2784C31.2398 33.635 32.9106 35.352 33.3473 35.5691C34.4984 36.1411 35.7367 34.9061 35.1631 33.7582C34.9455 33.3226 33.2238 31.6563 32.8663 31.5352C32.5397 31.4246 32.2291 31.4245 31.9167 31.5347ZM24.5402 34.581C23.2 35.0785 23.2012 38.8794 24.5417 39.3349C25.252 39.5763 26.0459 39.2008 26.2811 38.5123C26.406 38.1468 26.4095 35.78 26.2856 35.43C26.0348 34.7209 25.2246 34.3268 24.5402 34.581Z" fill="black"/>
        </g>
    </symbol>

    <symbol id="logo" width="123" height="48" viewBox="0 0 123 49" >
        <g>
            <path fill-rule="evenodd" clip-rule="evenodd" d="M13.5044 17.8242L42.6298 41.2167H0.46875L13.5044 17.8242Z" fill="white"/>
            <path fill-rule="evenodd" clip-rule="evenodd" d="M12.7412 7.76492L22.7171 1.35352C30.1043 14.5823 37.4756 27.783 44.8311 40.9558L12.7412 7.76492Z" fill="white"/>
            <path fill-rule="evenodd" clip-rule="evenodd" d="M15.8934 13.5791L42.6294 41.2169L13.5039 17.8244L15.8934 13.5791Z" fill="#ACACAC"/>
            <path fill-rule="evenodd" clip-rule="evenodd" d="M105.098 15.8174V27.5644H102.61V13.2714H102.981C107.067 13.2714 111.156 13.2714 115.242 13.2714C116.964 13.2714 118.38 12.5668 119.342 11.056C119.723 10.4545 119.96 9.7678 120.032 9.05283C120.105 8.33786 120.011 7.61531 119.76 6.9452C119.508 6.27509 119.105 5.67679 118.585 5.19999C118.064 4.72319 117.441 4.38168 116.768 4.20382C116.252 4.0635 115.722 3.99044 115.189 3.98633C111.481 3.96604 107.771 3.98633 104.063 3.97184C103.968 3.95991 103.872 3.98222 103.79 4.03502C103.709 4.08783 103.648 4.1679 103.617 4.26181C99.8983 11.925 96.1757 19.5871 92.4494 27.2483L92.2699 27.5528L78.9033 1.42293H79.2483C79.9382 1.42293 80.6309 1.47513 81.3153 1.42293C81.8762 1.36494 82.1174 1.61142 82.3586 2.09278C85.3146 8.01026 88.2827 13.9248 91.2631 19.8365C91.594 20.4919 91.9221 21.1501 92.2783 21.8664C92.3624 21.7069 92.427 21.6025 92.4774 21.4894C94.2359 17.769 96.0056 14.0515 97.7416 10.3194C99.0654 7.47477 100.35 4.60689 101.64 1.74481C101.673 1.63809 101.741 1.54652 101.832 1.48571C101.923 1.4249 102.031 1.39862 102.139 1.41133C106.692 1.42293 111.246 1.42293 115.8 1.41133C116.81 1.40292 117.813 1.5908 118.756 1.96519C119.579 2.27365 120.317 2.78387 120.907 3.45207C121.497 4.12026 121.922 4.92649 122.144 5.80159C122.703 7.60634 122.659 9.55312 122.018 11.3286C121.177 13.5498 119.654 15.0229 117.41 15.6289C116.859 15.7625 116.293 15.8229 115.727 15.8087C112.309 15.8261 108.893 15.8087 105.474 15.8087L105.098 15.8174Z" fill="white"/>
            <path fill-rule="evenodd" clip-rule="evenodd" d="M68.0247 5.38113V5.69431C68.0247 9.7105 68.0247 13.7238 68.0247 17.74C68.0541 18.995 67.925 20.2486 67.6405 21.4691C66.8833 24.3921 65.1164 26.3059 62.2866 27.0976C59.841 27.7819 57.3534 27.8718 54.933 27.0976C52.0724 26.1696 50.3531 24.0905 49.7838 21.0254C49.5783 19.8195 49.4844 18.5961 49.5034 17.3717C49.5034 12.2024 49.5034 7.03304 49.5034 1.86371V1.44614H51.9882V1.83471C51.9882 7.45834 51.9929 13.0791 52.0022 18.6969C51.9579 20.1492 52.3932 21.5738 53.2363 22.7363C53.9842 23.7401 55.0424 24.4483 56.2343 24.7429C58.0846 25.2591 60.0442 25.17 61.8435 24.4878C63.9834 23.6729 65.136 21.9998 65.4417 19.6915C65.5085 19.124 65.5376 18.5523 65.5287 17.9807C65.5287 12.6103 65.5287 7.23989 65.5287 1.86951V1.44324C65.6465 1.44324 65.739 1.42584 65.8316 1.42584C66.9113 1.42584 67.9883 1.42584 69.0652 1.42584C69.1597 1.41421 69.2552 1.43674 69.3354 1.48959C69.4157 1.54244 69.4758 1.62237 69.5056 1.71582C72.3849 7.83821 75.2717 13.9577 78.1661 20.0743C78.8504 21.5242 79.5319 22.9741 80.2246 24.424C80.2699 24.5045 80.2938 24.5961 80.2938 24.6893C80.2938 24.7825 80.2699 24.8741 80.2246 24.9546C79.8348 25.7492 79.459 26.5553 79.0775 27.3556C79.0523 27.4049 79.0215 27.4542 78.9626 27.5615L68.092 5.37823L68.0247 5.38113Z" fill="white"/>
            <path d="M50.5723 33.3408H53.6573C56.0748 33.3408 57.7043 34.9473 57.7043 37.2439C57.7043 39.5405 56.0748 41.1499 53.6573 41.1499H50.5723V33.3408ZM53.604 40.425C55.6093 40.425 56.905 39.1085 56.905 37.2352C56.905 35.362 55.6093 34.0455 53.604 34.0455H51.3603V40.425H53.604Z" fill="white"/>
            <path d="M64.3369 33.3408H65.1362V41.1499H64.3369V33.3408Z" fill="white"/>
            <path d="M77.7705 37.2355H78.5277V40.2222C77.7501 40.8902 76.7645 41.2436 75.754 41.2169C73.457 41.2169 71.7715 39.5321 71.7715 37.2442C71.7715 34.9563 73.4542 33.2715 75.7652 33.2715C76.9095 33.2715 77.9023 33.6514 78.5698 34.3995L78.0818 34.9157C77.7825 34.6106 77.4262 34.372 77.0346 34.2144C76.643 34.0568 76.2244 33.9837 75.8045 33.9993C73.9394 33.9993 72.568 35.3738 72.568 37.2355C72.568 39.0971 73.9394 40.4716 75.7932 40.4716C76.4979 40.4956 77.1912 40.2841 77.7705 39.8685V37.2355Z" fill="white"/>
            <path d="M85.6455 33.3408H86.442V41.1499H85.6455V33.3408Z" fill="white"/>
            <path d="M95.2262 34.0454H92.5703V33.332H98.6787V34.0454H96.0227V41.1498H95.2262V34.0454Z" fill="white"/>
            <path d="M109.165 39.0621H104.958L104.049 41.1499H103.208L106.66 33.3408H107.449L110.901 41.1499H110.06L109.165 39.0621ZM108.884 38.3922L107.073 34.1992L105.247 38.3951L108.884 38.3922Z" fill="white"/>
            <path d="M117.018 33.3408H117.817V40.425H122.046V41.1412H117.018V33.3408Z" fill="white"/>
            <path d="M0.46875 43.6641H2.41512V44.07H0.934308V45.3111H2.30013V45.7084H0.934308V47.399H0.46875V43.6641Z" fill="#F8F9F9"/>
            <path d="M4.15676 45.7197V46.0793H2.83301V45.7197H4.15676Z" fill="#F8F9F9"/>
            <path d="M4.64123 46.9007C4.82812 47.0221 5.04319 47.0892 5.26384 47.095C5.606 47.095 5.76867 46.9181 5.76867 46.6948C5.76867 46.4715 5.63405 46.3353 5.28628 46.2019C4.81792 46.0308 4.59916 45.764 4.59916 45.4421C4.59916 45.0101 4.93851 44.6563 5.49382 44.6563C5.71705 44.6546 5.93705 44.7115 6.13326 44.8216L6.01547 45.1782C5.8552 45.0763 5.67079 45.0221 5.4826 45.0217C5.20214 45.0217 5.0507 45.1898 5.0507 45.387C5.0507 45.5842 5.20495 45.7089 5.5415 45.8423C5.99303 46.0192 6.22301 46.2512 6.22301 46.6513C6.22301 47.124 5.86963 47.4546 5.25263 47.4546C4.99847 47.459 4.74744 47.3961 4.52344 47.2719L4.64123 46.9007Z" fill="#F8F9F9"/>
            <path d="M7.29186 45.9345C7.35636 45.8417 7.44611 45.7257 7.52183 45.6445L8.28467 44.7166H8.84559L7.85277 45.8185L8.99423 47.3989H8.43051L7.53585 46.1143L7.29466 46.3897V47.3989H6.8291V43.4639H7.29186V45.9345Z" fill="#F8F9F9"/>
            <path d="M10.8757 47.3996L10.8364 47.0603C10.7445 47.1875 10.6245 47.2902 10.4865 47.3598C10.3484 47.4294 10.1963 47.4639 10.0427 47.4604C9.94088 47.468 9.8386 47.4538 9.74234 47.4185C9.64607 47.3833 9.5579 47.3279 9.48335 47.2557C9.40881 47.1835 9.34952 47.0962 9.30919 46.9992C9.26887 46.9022 9.24839 46.7976 9.24904 46.692C9.24904 46.0425 9.80995 45.6887 10.8084 45.6916V45.6452C10.8186 45.5622 10.8105 45.4779 10.7847 45.3986C10.7589 45.3193 10.716 45.2471 10.6593 45.1874C10.6026 45.1276 10.5336 45.082 10.4574 45.0538C10.3812 45.0256 10.2999 45.0156 10.2194 45.0246C9.98059 45.0256 9.74668 45.0949 9.54352 45.2247L9.43695 44.9028C9.69118 44.7457 9.98213 44.6635 10.2783 44.6651C11.072 44.6651 11.2627 45.2247 11.2627 45.7612V46.7645C11.2591 46.98 11.2742 47.1955 11.3076 47.4083L10.8757 47.3996ZM10.8056 46.0309C10.2895 46.0309 9.70618 46.115 9.70618 46.634C9.70203 46.6957 9.71071 46.7575 9.73165 46.8154C9.75259 46.8733 9.7853 46.9259 9.82757 46.9696C9.86983 47.0133 9.92068 47.0471 9.97666 47.0687C10.0327 47.0904 10.0925 47.0994 10.1521 47.0951C10.289 47.0985 10.4234 47.0568 10.5358 46.976C10.6483 46.8952 10.7329 46.7795 10.7775 46.6456C10.795 46.5953 10.8044 46.5424 10.8056 46.489V46.0251V46.0309Z" fill="#F8F9F9"/>
            <path d="M12.5671 43.9453V44.7167H13.243V45.0878H12.5671V46.5377C12.5671 46.8712 12.6596 47.0597 12.9204 47.0597C13.015 47.0616 13.1094 47.0499 13.2009 47.0249L13.2233 47.3902C13.0894 47.4397 12.9476 47.4623 12.8054 47.4569C12.711 47.4627 12.6166 47.4472 12.5285 47.4117C12.4404 47.3762 12.3607 47.3214 12.295 47.2511C12.1514 47.0512 12.0863 46.8026 12.1127 46.5551V45.1052H11.7061V44.7167H12.1071V44.0729L12.5671 43.9453Z" fill="#F8F9F9"/>
            <path d="M14.3423 43.9453V44.7167H15.0182V45.0878H14.3423V46.5377C14.3423 46.8712 14.4349 47.0597 14.6957 47.0597C14.7903 47.062 14.8848 47.0502 14.9762 47.0249L14.9986 47.3902C14.8646 47.4397 14.7228 47.4623 14.5807 47.4569C14.4863 47.4623 14.392 47.4467 14.3039 47.4112C14.2159 47.3757 14.1362 47.3211 14.0703 47.2511C13.929 47.0502 13.865 46.8021 13.8908 46.5551V45.1052H13.4785V44.7167H13.8824V44.0729L14.3423 43.9453Z" fill="#F8F9F9"/>
            <path d="M16.8076 47.0566C16.9341 47.0641 17.061 47.0583 17.1863 47.0392C17.4585 47.0048 17.7135 46.8831 17.9155 46.6912C18.1722 46.4361 18.3357 46.097 18.3782 45.7314H18.3614C18.2623 45.8568 18.1367 45.9571 17.9942 46.0245C17.8518 46.0918 17.6962 46.1245 17.5396 46.1199C17.4006 46.123 17.2624 46.0962 17.1337 46.0414C17.0051 45.9866 16.8888 45.9049 16.7922 45.8015C16.6955 45.698 16.6206 45.575 16.5721 45.4402C16.5236 45.3054 16.5026 45.1616 16.5104 45.018C16.5047 44.8523 16.5313 44.6871 16.5887 44.5322C16.646 44.3773 16.7328 44.2359 16.8439 44.1163C16.9551 43.9968 17.0884 43.9015 17.2358 43.8363C17.3833 43.771 17.5419 43.737 17.7023 43.7363C18.4147 43.7363 18.855 44.3366 18.855 45.2558C18.8709 45.5649 18.8259 45.8742 18.7228 46.1648C18.6196 46.4554 18.4604 46.7213 18.2548 46.9464C17.9754 47.2158 17.6193 47.3846 17.2395 47.4277C17.0969 47.4529 16.9522 47.4626 16.8076 47.4567V47.0566ZM16.9787 44.9832C16.9689 45.0801 16.9789 45.1781 17.0081 45.2708C17.0374 45.3634 17.0852 45.4486 17.1484 45.5209C17.2117 45.5931 17.289 45.6507 17.3752 45.69C17.4615 45.7293 17.5548 45.7493 17.649 45.7488C17.7853 45.7528 17.9203 45.7201 18.0407 45.654C18.1611 45.588 18.2629 45.4907 18.3361 45.3718C18.3655 45.3179 18.38 45.2567 18.3782 45.1949C18.3782 44.5773 18.1594 44.1075 17.6658 44.1075C17.262 44.1075 16.9787 44.4845 16.9787 44.9832Z" fill="#F8F9F9"/>
            <path d="M19.2842 47.399V47.109L19.6516 46.7378C20.5434 45.8679 20.9445 45.3982 20.9501 44.853C20.9597 44.7571 20.9482 44.6603 20.9165 44.5696C20.8849 44.479 20.8339 44.3969 20.7673 44.3295C20.7007 44.262 20.6203 44.211 20.532 44.1801C20.4437 44.1493 20.3499 44.1394 20.2574 44.1512C19.9841 44.1621 19.7228 44.2696 19.517 44.4557L19.3683 44.1107C19.6458 43.873 19.9952 43.7437 20.3555 43.7453C20.4941 43.7324 20.6337 43.7502 20.765 43.7975C20.8964 43.8448 21.0165 43.9205 21.1173 44.0195C21.2182 44.1186 21.2974 44.2387 21.3499 44.3719C21.4023 44.5052 21.4266 44.6484 21.4213 44.7921C21.4213 45.459 20.9557 45.9955 20.2209 46.7262L19.9404 46.993H21.5026V47.399H19.2842Z" fill="#F8F9F9"/>
            <path d="M24.346 45.5603C24.346 46.784 23.9085 47.4596 23.1372 47.4596C22.4557 47.4596 21.9958 46.8014 21.9846 45.6096C21.9733 44.4178 22.4894 43.7363 23.1961 43.7363C23.9029 43.7363 24.346 44.412 24.346 45.5603ZM22.4557 45.6154C22.4557 46.552 22.7362 47.0827 23.1625 47.0827C23.6449 47.0827 23.8748 46.5027 23.8748 45.5806C23.8748 44.6585 23.6561 44.1133 23.1681 44.1133C22.7558 44.1133 22.4557 44.6353 22.4557 45.6154Z" fill="#F8F9F9"/>
            <path d="M25.802 44.2531L25.1962 44.5895L25.1064 44.2183L25.8665 43.7979H26.2703V47.3994H25.802V44.2531Z" fill="#F8F9F9"/>
            <path d="M29.5212 44.1424C29.4021 44.137 29.2828 44.1438 29.165 44.1627C28.8545 44.2079 28.5672 44.3581 28.348 44.59C28.1288 44.8219 27.99 45.1223 27.9534 45.4444H27.9703C28.1108 45.2616 28.304 45.1299 28.5218 45.0683C28.7397 45.0067 28.9708 45.0184 29.1817 45.1018C29.3927 45.1852 29.5725 45.3358 29.695 45.5319C29.8176 45.728 29.8765 45.9594 29.8634 46.1925C29.8717 46.3553 29.848 46.5182 29.7936 46.6713C29.7392 46.8243 29.6553 46.9644 29.547 47.0829C29.4387 47.2014 29.3082 47.2959 29.1635 47.3607C29.0187 47.4255 28.8628 47.4591 28.7051 47.4597C27.9591 47.4597 27.4711 46.8623 27.4711 45.9257C27.461 45.628 27.5081 45.3312 27.6097 45.0525C27.7113 44.7738 27.8653 44.5186 28.0628 44.3018C28.3688 44.0002 28.7638 43.8134 29.1847 43.7712C29.2987 43.7521 29.4141 43.7424 29.5296 43.7422V44.1424H29.5212ZM29.3866 46.2186C29.3866 45.7024 29.1061 45.3922 28.6686 45.3922C28.5275 45.3951 28.3898 45.438 28.2706 45.5162C28.1514 45.5944 28.0553 45.705 27.9927 45.8358C27.9554 45.9016 27.9369 45.9771 27.9394 46.0533C27.9394 46.6333 28.2199 47.0827 28.7051 47.0827C29.1117 47.0943 29.3866 46.7348 29.3866 46.2244V46.2186Z" fill="#F8F9F9"/>
            <path d="M30.3927 46.839C30.6267 46.9816 30.8923 47.0595 31.1639 47.0651C31.7697 47.0651 31.9576 46.6679 31.952 46.3692C31.952 45.8646 31.5061 45.6472 31.0518 45.6472H30.7881V45.2818H31.0518C31.3939 45.2818 31.8286 45.0991 31.8286 44.6728C31.8286 44.3829 31.6519 44.1306 31.2172 44.1306C30.9679 44.138 30.7262 44.2207 30.5217 44.3684L30.3955 44.0146C30.6655 43.8282 30.9823 43.7274 31.307 43.7246C31.9941 43.7246 32.3054 44.1451 32.3054 44.5945C32.3016 44.7889 32.237 44.9768 32.1212 45.13C32.0054 45.2832 31.8447 45.3934 31.6632 45.4442C31.8785 45.4762 32.0755 45.5873 32.2181 45.7572C32.3608 45.927 32.4395 46.1443 32.44 46.3692C32.44 46.9492 32.0053 47.4508 31.1695 47.4508C30.8519 47.4552 30.539 47.371 30.2637 47.2072L30.3927 46.839Z" fill="#F8F9F9"/>
            <path d="M34.272 45.7197V46.0793H32.9482V45.7197H34.272Z" fill="#F8F9F9"/>
            <path d="M36.6612 44.1424C36.543 44.1371 36.4247 44.1439 36.3078 44.1627C35.9973 44.2079 35.71 44.3581 35.4908 44.59C35.2716 44.8219 35.1329 45.1223 35.0963 45.4444H35.1131C35.2536 45.2616 35.4468 45.1299 35.6646 45.0683C35.8825 45.0067 36.1136 45.0184 36.3245 45.1018C36.5355 45.1852 36.7153 45.3358 36.8378 45.5319C36.9604 45.728 37.0193 45.9594 37.0062 46.1925C37.0145 46.3553 36.9908 46.5182 36.9364 46.6713C36.882 46.8243 36.7981 46.9644 36.6898 47.0829C36.5815 47.2014 36.451 47.2959 36.3063 47.3607C36.1615 47.4255 36.0056 47.4591 35.8479 47.4597C35.1019 47.4597 34.6167 46.8623 34.6167 45.9257C34.6062 45.6282 34.6529 45.3316 34.754 45.0528C34.8551 44.7741 35.0086 44.5189 35.2056 44.3018C35.5117 44.0002 35.9066 43.8134 36.3275 43.7712C36.4406 43.7522 36.555 43.7425 36.6696 43.7422V44.1424H36.6612ZM36.5294 46.2186C36.5294 45.7024 36.2489 45.3922 35.8114 45.3922C35.6703 45.3954 35.5328 45.4384 35.4137 45.5166C35.2946 45.5948 35.1984 45.7052 35.1355 45.8358C35.0982 45.9016 35.0797 45.9771 35.0822 46.0533C35.0822 46.6333 35.3627 47.0827 35.8479 47.0827C36.2545 47.0943 36.5294 46.7348 36.5294 46.2244V46.2186Z" fill="#F8F9F9"/>
            <path d="M38.4475 44.2531L37.8417 44.5895L37.752 44.2183L38.512 43.7979H38.913V47.3994H38.4587V44.2531H38.4475Z" fill="#F8F9F9"/>
            <path d="M40.2844 46.839C40.5188 46.9808 40.7842 47.0586 41.0557 47.0651C41.6615 47.0651 41.8494 46.6679 41.8437 46.3692C41.8437 45.8646 41.3978 45.6472 40.9435 45.6472H40.6799V45.2818H40.9463C41.2884 45.2818 41.7232 45.0991 41.7232 44.6728C41.7232 44.3829 41.5465 44.1306 41.1146 44.1306C40.8643 44.1376 40.6215 44.2203 40.4162 44.3684L40.2928 44.0146C40.5624 43.8272 40.8795 43.7263 41.2043 43.7246C41.8886 43.7246 42.1999 44.1451 42.1999 44.5945C42.1966 44.7891 42.1321 44.9772 42.0163 45.1304C41.9004 45.2837 41.7394 45.3938 41.5577 45.4442C41.773 45.4762 41.97 45.5873 42.1127 45.7572C42.2553 45.927 42.3341 46.1443 42.3345 46.3692C42.3345 46.9492 41.8998 47.4508 41.0641 47.4508C40.7465 47.4547 40.4337 47.3706 40.1582 47.2072L40.2844 46.839Z" fill="#F8F9F9"/>
            <path d="M42.9102 47.399V47.109L43.2804 46.7378C44.1694 45.8679 44.5733 45.3981 44.5789 44.853C44.5879 44.7572 44.5761 44.6606 44.5442 44.5703C44.5124 44.4799 44.4614 44.398 44.3949 44.3307C44.3285 44.2634 44.2483 44.2123 44.1602 44.1813C44.0722 44.1502 43.9785 44.1399 43.8861 44.1512C43.6128 44.1617 43.3513 44.2692 43.1457 44.4557L42.9971 44.1106C43.2737 43.8734 43.6221 43.7441 43.9815 43.7453C44.1202 43.7324 44.2599 43.7502 44.3914 43.7975C44.5229 43.8448 44.6431 43.9204 44.7442 44.0194C44.8453 44.1184 44.9248 44.2385 44.9775 44.3717C45.0303 44.5049 45.055 44.6482 45.05 44.7921C45.05 45.459 44.5817 45.9955 43.8469 46.7262L43.5664 46.993H45.1538V47.399H42.9102Z" fill="#F8F9F9"/>
        </g>
    </symbol>

     <symbol id="arrow__down" width="12" height="6" viewBox="0 0 12 6">
        <g>
            <path d="M0.833008 0.5L5.83301 5.5L10.833 0.5" stroke="white" stroke-linecap="round" stroke-linejoin="round"/>
        </g>
    </symbol>

     <symbol id="play" viewBox="0 0 24 24">
        <g>
            <path fill="" d="M8 5v14l11-7z"/>
        </g>
    </symbol>

     <symbol id="coma" viewBox="0 0 22 22">
        <g clip-path="url(#clip0_2259_39027)">
            <path d="M12.8154 10.0659V0.175049H22V14.9775C22 18.0212 20.9013 20.3035 18.703 21.8253H14.2287C15.249 20.9799 16.034 20.0077 16.5837 18.9087C17.2116 17.8095 17.5257 16.4992 17.5257 14.9775V10.0659H12.8154ZM0 0.175049V10.0659H4.70999V14.9775C4.70999 16.4992 4.39625 17.8095 3.76825 18.9087C3.21862 20.0077 2.43362 20.9799 1.413 21.8253H5.88762C8.08563 20.3035 9.18461 18.0209 9.18461 14.9775V0.175049H0Z" fill="#171717"/>
        </g>
    </symbol>

    <symbol id="file" width="38" height="40" viewBox="0 0 38 40">
        <g>
            <path d="M15.9064 28.4735C18.6658 29.7015 21.9124 28.4545 23.1382 25.6959L26.5421 18.0545C26.5643 18.0047 26.5646 17.9487 26.5451 17.898C26.5256 17.8472 26.4879 17.8058 26.4381 17.7836L25.3571 17.3026C25.3078 17.2808 25.2518 17.2794 25.2014 17.2988C25.1511 17.3181 25.1104 17.3566 25.0884 17.4059L21.6845 25.0472C21.2621 25.9963 20.4946 26.7234 19.5253 27.0957C18.556 27.468 17.4991 27.4416 16.5521 27.0185C15.603 26.5961 14.8759 25.8286 14.5044 24.8614C14.1321 23.8921 14.1593 22.8373 14.5817 21.8882L18.0499 14.0983L18.6117 12.8358C19.1371 11.6552 20.5233 11.1228 21.7039 11.6481C22.2751 11.9023 22.7121 12.3635 22.9364 12.9476C23.1608 13.5318 23.1449 14.1669 22.8907 14.7381L19.4498 22.4665C19.3617 22.6607 19.2055 22.8105 19.0065 22.8869L19.0044 22.8877C18.8055 22.9641 18.5913 22.9566 18.3979 22.8705C18.2017 22.7832 18.0539 22.6262 17.9775 22.4273C17.9019 22.2304 17.9087 22.0141 17.9947 21.8208L20.8081 15.5064C20.8303 15.4566 20.8306 15.4006 20.8111 15.3498C20.7916 15.299 20.7539 15.2577 20.7041 15.2355L19.6231 14.7545C19.5738 14.7327 19.5178 14.7313 19.4674 14.7506C19.4171 14.77 19.3764 14.8085 19.3543 14.8578L16.5439 21.1734C16.2845 21.7563 16.2684 22.4037 16.4968 22.9984C16.7253 23.5931 17.1735 24.0646 17.7535 24.3227C18.9574 24.8584 20.3704 24.3133 20.907 23.1114L21.2399 22.3594L24.3457 15.3839C24.5573 14.9123 24.673 14.4034 24.6864 13.8867C24.6997 13.3701 24.6104 12.8559 24.4235 12.374C24.0471 11.3941 23.3104 10.6206 22.3525 10.1944C21.3603 9.75457 20.2832 9.75782 19.3435 10.1187C18.4038 10.4797 17.6015 11.1983 17.1609 12.1884L13.1287 21.2416C12.5364 22.5766 12.4965 24.0661 13.0208 25.4312C13.5438 26.7993 14.5706 27.8791 15.9064 28.4735Z" fill=""/>
        </g>
    </symbol>

    <symbol id="facebook" width="30" height="30" viewBox="0 0 30 30" >
        <g>
            <path d="M11.3216 30V15.9231H7.5V10.8548H11.3216V6.52575C11.3216 3.12397 13.579 0 18.7806 0C20.8866 0 22.4439 0.19665 22.4439 0.19665L22.3212 4.92963C22.3212 4.92963 20.733 4.91457 18.9999 4.91457C17.1241 4.91457 16.8236 5.75652 16.8236 7.15395V10.8548H22.4703L22.2246 15.9231H16.8236V30H11.3216Z" fill=""/>
        </g>
    </symbol>

    <symbol id="in" width="40" height="40" viewBox="0 0 40 40" >
        <g>
            <path d="M7.91124 11.4236C9.82933 11.4236 11.3843 9.86864 11.3843 7.95055C11.3843 6.03246 9.82933 4.47754 7.91124 4.47754C5.99315 4.47754 4.43823 6.03246 4.43823 7.95055C4.43823 9.86864 5.99315 11.4236 7.91124 11.4236Z" fill=""/>
            <path fill-rule="evenodd" clip-rule="evenodd" d="M14.6632 33.3236V14.0553H20.4061V16.6902H20.4871C21.2855 15.1775 23.2379 13.5791 26.1505 13.5791C32.2171 13.5791 33.3347 17.568 33.3347 22.7584V33.3251H27.349V23.9537C27.349 21.7203 27.3109 18.8458 24.2362 18.8458C21.1189 18.8458 20.6457 21.2807 20.6457 23.795V33.3236H14.6632ZM10.9061 14.0553H4.91406V33.3236H10.9061V14.0553Z" fill=""/>
        </g>
    </symbol>

     <symbol id="inst" width="40" height="40" viewBox="0 0 40 40">
        <g>
            <path fill-rule="evenodd" clip-rule="evenodd" d="M19.9998 12.3027C15.7484 12.3027 12.3027 15.7484 12.3027 19.9998C12.3027 24.2513 15.7484 27.697 19.9998 27.697C24.2513 27.697 27.697 24.2513 27.697 19.9998C27.697 15.7484 24.2513 12.3027 19.9998 12.3027ZM19.9998 25.0057C17.2398 25.0057 14.9942 22.7598 14.9942 19.9998C14.9942 17.2398 17.2398 14.9942 19.9998 14.9942C22.7598 14.9942 25.0057 17.2398 25.0057 19.9998C25.0057 22.7598 22.7598 25.0057 19.9998 25.0057Z" fill=""/>
            <path d="M29.8061 11.9943C29.8061 12.9885 29.0002 13.7943 28.0061 13.7943C27.0121 13.7943 26.2061 12.9885 26.2061 11.9943C26.2061 11.0002 27.0121 10.1943 28.0061 10.1943C29.0002 10.1943 29.8061 11.0002 29.8061 11.9943Z" fill=""/>
            <path fill-rule="evenodd" clip-rule="evenodd" d="M20 5C15.92 5 15.4229 5.01715 13.8114 5.08572C12.2172 5.17143 11.12 5.41143 10.1771 5.78857C9.18285 6.16572 8.36 6.68 7.52 7.52C6.68 8.36 6.16572 9.18285 5.78857 10.1771C5.41143 11.12 5.17143 12.2172 5.08572 13.8114C5.01715 15.4229 5 15.92 5 20C5 24.08 5.01715 24.5772 5.08572 26.1885C5.15428 27.7828 5.41143 28.88 5.78857 29.8228C6.16572 30.8172 6.68 31.64 7.52 32.48C8.36 33.32 9.18285 33.8343 10.1771 34.2115C11.1371 34.5885 12.2172 34.8285 13.8114 34.9143C15.4057 34.9828 15.92 35 20 35C24.08 35 24.5772 34.9828 26.1885 34.9143C27.7828 34.8457 28.88 34.5885 29.8228 34.2115C30.8172 33.8343 31.64 33.32 32.48 32.48C33.32 31.64 33.8343 30.8172 34.2115 29.8228C34.5885 28.8628 34.8285 27.7828 34.9143 26.1885C34.9828 24.5943 35 24.08 35 20C35 15.92 34.9828 15.4229 34.9143 13.8114C34.8457 12.2172 34.5885 11.12 34.2115 10.1771C33.8343 9.18285 33.32 8.36 32.48 7.52C31.64 6.68 30.8172 6.16572 29.8228 5.78857C28.8628 5.41143 27.7828 5.17143 26.1885 5.08572C24.5772 5.01715 24.08 5 20 5ZM20 7.70857C24.0115 7.70857 24.4743 7.72572 26.0685 7.79428C27.5257 7.86285 28.3315 8.10285 28.8457 8.30857C29.5485 8.58285 30.0457 8.90857 30.5772 9.42285C31.1085 9.95428 31.4343 10.4514 31.6915 11.1543C31.8972 11.6857 32.1372 12.4743 32.2057 13.9314C32.2743 15.5086 32.2915 15.9886 32.2915 20C32.2915 24.0115 32.2743 24.4743 32.2057 26.0685C32.1372 27.5257 31.8972 28.3315 31.6915 28.8457C31.4172 29.5485 31.0915 30.0457 30.5772 30.5772C30.0457 31.1085 29.5485 31.4343 28.8457 31.6915C28.3143 31.8972 27.5257 32.1372 26.0685 32.2057C24.4915 32.2743 24.0115 32.2915 20 32.2915C15.9886 32.2915 15.5257 32.2743 13.9314 32.2057C12.4743 32.1372 11.6686 31.8972 11.1543 31.6915C10.4514 31.4172 9.95428 31.0915 9.42285 30.5772C8.89143 30.0457 8.56572 29.5485 8.30857 28.8457C8.10285 28.3143 7.86285 27.5257 7.79428 26.0685C7.72572 24.4915 7.70857 24.0115 7.70857 20C7.70857 15.9886 7.72572 15.5257 7.79428 13.9314C7.86285 12.4743 8.10285 11.6686 8.30857 11.1543C8.58285 10.4514 8.90857 9.95428 9.42285 9.42285C9.95428 8.89143 10.4514 8.56572 11.1543 8.30857C11.6857 8.10285 12.4743 7.86285 13.9314 7.79428C15.5257 7.72572 15.9886 7.70857 20 7.70857Z" fill="#"/>
        </g>
    </symbol>

     <symbol id="up" width="40" height="40" viewBox="0 0 40 40">
        <g>
            <path d="M30.9294 9.39656C26.6419 9.41719 23.3831 12.2528 22.1631 16.7716C20.1162 13.6216 18.5194 10.0184 17.6038 6.97656L13.0912 6.99781L13.1537 18.9591C13.1564 19.5222 13.0481 20.0803 12.8351 20.6016C12.6221 21.1229 12.3085 21.5971 11.9122 21.9972C11.5158 22.3972 11.0446 22.7153 10.5254 22.9333C10.0061 23.1513 9.44906 23.2648 8.88594 23.2675C7.74866 23.2729 6.65581 22.8263 5.84783 22.0259C5.44775 21.6296 5.12965 21.1584 4.91169 20.6391C4.69372 20.1199 4.58017 19.5628 4.5775 18.9997L4.515 7.03844L0 7.06031L0.0625 19.0222C0.08 23.9859 4.04625 27.9191 8.9 27.8941C13.7537 27.8691 17.6844 23.9028 17.6625 18.9378L17.6531 16.9066C18.5631 18.7066 19.7006 20.6191 20.9506 22.3066L18.1912 35.5216L22.8162 35.5003L24.8038 25.8991C26.6138 27.0197 28.6475 27.6866 31.0163 27.6753C35.9813 27.6534 40.025 23.5734 40 18.3816C39.9775 13.4153 35.895 9.37344 30.93 9.39594L30.9294 9.39656ZM30.9937 23.0503C29.1887 23.0584 27.38 22.2778 25.9075 21.0422L26.35 19.2297V19.1159C26.68 17.1947 27.6787 13.9184 31.0637 13.9034C32.2599 13.9013 33.4083 14.3725 34.2581 15.2142C35.1079 16.056 35.5901 17.1998 35.5994 18.3959C35.4975 20.9916 33.3638 23.0334 30.9931 23.0441L30.9937 23.0503Z" fill=""/>
        </g>
    </symbol>
</svg>


